<svg xmlns="http://www.w3.org/2000/svg" xmlns:xlink="http://www.w3.org/1999/xlink" viewBox="0 0 430 430" width="430" height="430" preserveAspectRatio="xMidYMid meet" style="width: 100%; height: 100%; transform: translate3d(0px, 0px, 0px); content-visibility: visible;"><defs><clipPath id="__lottie_element_51"><rect width="430" height="430" x="0" y="0"/></clipPath><clipPath id="__lottie_element_53"><path d="M0,0 L430,0 L430,430 L0,430z"/></clipPath></defs><g clip-path="url(#__lottie_element_51)"><g clip-path="url(#__lottie_element_53)" transform="matrix(1,0,0,1,0,0)" opacity="1" style="display: block;"><g transform="matrix(1,0,0,1,215,215)" opacity="1" style="display: block;"><g opacity="1" transform="matrix(1,0,0,1,0,0)"><path class="secondary" fill="rgb(235,230,239)" fill-opacity="1" d=" M-160.11900329589844,0 C-160.11900329589844,88.43099975585938 -88.43099975585938,160.11900329589844 0,160.11900329589844 C88.43099975585938,160.11900329589844 160.11900329589844,88.43099975585938 160.11900329589844,0 C160.11900329589844,-88.43099975585938 88.43099975585938,-160.11900329589844 0,-160.11900329589844 C-88.43099975585938,-160.11900329589844 -160.11900329589844,-88.43099975585938 -160.11900329589844,0z"/></g></g><g transform="matrix(1,-0.000009736684660310857,0.000009736684660310857,1,217.08726501464844,140.56398010253906)" opacity="1" style="display: block;"><g opacity="1" transform="matrix(1,0,0,1,0,0)"><path class="tertiary" fill="rgb(44,165,141)" fill-opacity="1" d=" M-30.312000274658203,59.62799835205078 C-46.36199951171875,43.21200180053711 -57.04399871826172,15.456999778747559 -57.04399871826172,-4.664999961853027 C-57.04399871826172,-35.01300048828125 -32.448001861572266,-59.62799835205078 -2.0820000171661377,-59.62799835205078 C29.507999420166016,-59.62799835205078 43.513999938964844,-45.183998107910156 49.375,-38.37300109863281 C54.159000396728516,-32.78499984741211 57.04399871826172,-25.53700065612793 57.04399871826172,-17.61199951171875 C57.04399871826172,-12.043000221252441 55.16400146484375,-5.614999771118164 53.082000732421875,-2.236999988555908 C43.130001068115234,14.013999938964844 33.05099868774414,9.57699966430664 15.083000183105469,47.55799865722656"/></g></g><g transform="matrix(1,-0.000009736684660310857,0.000009736684660310857,1,285.8793640136719,252.2803192138672)" opacity="1" style="display: block;"><g opacity="1" transform="matrix(1,0,0,1,0,0)"><path class="tertiary" fill="rgb(44,165,141)" fill-opacity="1" d=" M-45.07099914550781,-56.034000396728516 C-23.268999099731445,-62.99100112915039 6.130000114440918,-60.23400115966797 24.079999923706055,-51.340999603271484 C51.2869987487793,-37.8650016784668 62.40700149536133,-4.90500020980835 48.930999755859375,22.302000045776367 C34.90700149536133,50.62300109863281 15.753000259399414,56.75899887084961 7.043000221252441,58.96799850463867 C-0.07800000160932541,60.7760009765625 -7.85699987411499,60.15399932861328 -14.960000038146973,56.630001068115234 C-19.96299934387207,54.165000915527344 -24.875999450683594,49.637001037597656 -26.993999481201172,46.25899887084961 C-37.11000061035156,30.15399932861328 -28.69099998474121,23.086000442504883 -54.65700149536133,-9.817999839782715"/></g></g><g transform="matrix(1,-0.000009736684660310857,0.000009736684660310857,1,154.3364715576172,264.10760498046875)" opacity="1" style="display: block;"><g opacity="1" transform="matrix(1,0,0,1,0,0)"><path class="tertiary" fill="rgb(44,165,141)" fill-opacity="1" d=" M28.8439998626709,-51.24300003051758 C-14.888999938964844,-39.24599838256836 -17.610000610351562,-50.45899963378906 -36.946998596191406,-47.61000061035156 C-40.87300109863281,-47.0260009765625 -46.9900016784668,-44.340999603271484 -51.28099822998047,-40.762001037597656 C-57.36199951171875,-35.66699981689453 -61.05099868774414,-28.802000045776367 -62.27399826049805,-21.55299949645996 C-63.75299835205078,-12.696999549865723 -65.83499908447266,7.315999984741211 -45.566001892089844,31.547000885009766 C-26.08300018310547,54.827999114990234 8.574999809265137,57.91400146484375 31.875,38.430999755859375 C45.97200012207031,26.635000228881836 59.22800064086914,3.938999891281128 63.15399932861328,-17.31599998474121"/></g></g><g transform="matrix(1,-0.000009736684660310857,0.000009736684660310857,1,154.33660888671875,279.1116027832031)" opacity="0.5" style="mix-blend-mode: multiply; display: block;"><g opacity="1" transform="matrix(1,0,0,1,0,0)" style="mix-blend-mode: multiply;"><path class="tertiary" fill="rgb(44,165,141)" fill-opacity="1" d=" M31.875,5.166999816894531 C8.574999809265137,24.649999618530273 -26.08300018310547,21.56399917602539 -45.566001892089844,-1.7170000076293945 C-56.36000061035156,-14.621999740600586 -60.81399917602539,-26.32900047302246 -62.39699935913086,-35.792999267578125 C-63.85100173950195,-26.586999893188477 -65.27400207519531,-7.01800012588501 -45.566001892089844,16.542999267578125 C-26.08300018310547,39.82400131225586 8.574999809265137,42.90999984741211 31.875,23.427000045776367 C45.97200012207031,11.630999565124512 59.22800064086914,-11.067000389099121 63.15399932861328,-32.32099914550781 C63.15399932861328,-32.32099914550781 59.191001892089844,-36.23899841308594 59.191001892089844,-36.23899841308594 C53.231998443603516,-19.7189998626709 42.81800079345703,-3.990000009536743 31.875,5.166999816894531z"/></g></g><g transform="matrix(1,-0.000009736684660310857,0.000009736684660310857,1,192.70326232910156,140.563232421875)" opacity="0.5" style="mix-blend-mode: multiply; display: block;"><g opacity="1" transform="matrix(1,0,0,1,0,0)" style="mix-blend-mode: multiply;"><path class="tertiary" fill="rgb(44,165,141)" fill-opacity="1" d=" M-14.399999618530273,-4.665999889373779 C-14.399999618530273,-32.33100128173828 6.041999816894531,-55.22100067138672 32.65999984741211,-59.05400085449219 C29.430999755859375,-59.41400146484375 25.99799919128418,-59.62799835205078 22.302000045776367,-59.62799835205078 C-8.064000129699707,-59.62799835205078 -32.65999984741211,-35.013999938964844 -32.65999984741211,-4.665999889373779 C-32.65999984741211,15.456000328063965 -21.979000091552734,43.21200180053711 -5.927999973297119,59.62799835205078 C-5.927999973297119,59.62799835205078 8.805999755859375,55.709999084472656 8.805999755859375,55.709999084472656 C-5.257999897003174,39.04999923706055 -14.399999618530273,13.939000129699707 -14.399999618530273,-4.665999889373779z"/></g></g><g transform="matrix(1,-0.000009736684660310857,0.000009736684660310857,1,284.6163635253906,253.47833251953125)" opacity="0.5" style="mix-blend-mode: multiply; display: block;"><g opacity="1" transform="matrix(1,0,0,1,0,0)" style="mix-blend-mode: multiply;"><path class="tertiary" fill="rgb(44,165,141)" fill-opacity="1" d=" M17.43600082397461,39.5099983215332 C10.3149995803833,41.31800079345703 2.5350000858306885,40.696998596191406 -4.567999839782715,37.17300033569336 C-9.571000099182129,34.70800018310547 -14.482999801635742,30.179000854492188 -16.60099983215332,26.801000595092773 C-26.716999053955078,10.696000099182129 -18.298999786376953,3.628999948501587 -44.26499938964844,-29.274999618530273 C-44.26499938964844,-29.274999618530273 -38.150001525878906,-58.75600051879883 -38.150001525878906,-58.75600051879883 C-40.07699966430664,-58.30699920654297 -41.97700119018555,-57.814998626708984 -43.80799865722656,-57.23099899291992 C-43.80799865722656,-57.23099899291992 -53.39500045776367,-11.015000343322754 -53.39500045776367,-11.015000343322754 C-27.429000854492188,21.888999938964844 -35.84700012207031,28.95599937438965 -25.731000900268555,45.06100082397461 C-23.613000869750977,48.43899917602539 -18.701000213623047,52.96799850463867 -13.697999954223633,55.43299865722656 C-6.59499979019165,58.957000732421875 1.184999942779541,59.577999114990234 8.305999755859375,57.77000045776367 C17.016000747680664,55.56100082397461 36.16999816894531,49.42499923706055 50.194000244140625,21.104000091552734 C51.486000061035156,18.496000289916992 52.54800033569336,15.833999633789062 53.39500045776367,13.142000198364258 C40.3129997253418,32.73899841308594 24.9689998626709,37.5989990234375 17.43600082397461,39.5099983215332z"/></g></g><g transform="matrix(1,-0.000009736684660310857,0.000009736684660310857,1,215,215)" opacity="1" style="display: block;"><g opacity="1" transform="matrix(1,0,0,1,0,0)"><path class="quaternary" fill="rgb(58,51,71)" fill-opacity="1" d=" M-31.895999908447266,0 C-31.895999908447266,17.614999771118164 -17.614999771118164,31.895999908447266 0,31.895999908447266 C17.614999771118164,31.895999908447266 31.895999908447266,17.614999771118164 31.895999908447266,0 C31.895999908447266,-17.614999771118164 17.614999771118164,-31.895999908447266 0,-31.895999908447266 C-17.614999771118164,-31.895999908447266 -31.895999908447266,-17.614999771118164 -31.895999908447266,0z"/></g></g><g transform="matrix(1,0,0,1,215,215)" opacity="1" style="display: block;"><g opacity="1" transform="matrix(1,0,0,1,0,0)"><path stroke-linecap="round" stroke-linejoin="round" fill-opacity="0" class="primary" stroke="rgb(18,19,49)" stroke-opacity="1" stroke-width="7" d=" M-160.11900329589844,0 C-160.11900329589844,88.43099975585938 -88.43099975585938,160.11900329589844 0,160.11900329589844 C88.43099975585938,160.11900329589844 160.11900329589844,88.43099975585938 160.11900329589844,0 C160.11900329589844,-88.43099975585938 88.43099975585938,-160.11900329589844 0,-160.11900329589844 C-88.43099975585938,-160.11900329589844 -160.11900329589844,-88.43099975585938 -160.11900329589844,0z"/></g></g><g transform="matrix(1,-0.000009736684660310857,0.000009736684660310857,1,-35.00244140625,-34.99755859375)" opacity="1" style="display: block;"><g opacity="1" transform="matrix(-0.5446390509605408,0.838670551776886,-0.838670551776886,-0.5446390509605408,0,0)"/><g opacity="1" transform="matrix(1,0,0,1,252.08200073242188,182.44700622558594)"><path stroke-linecap="round" stroke-linejoin="round" fill-opacity="0" class="primary" stroke="rgb(18,19,49)" stroke-opacity="1" stroke-width="7" d=" M15.359000205993652,40.090999603271484 C33.15999984741211,2.7330000400543213 43.1879997253418,7.044000148773193 53.097999572753906,-9.116999626159668 C55.17499923706055,-12.503000259399414 57.04800033569336,-18.927000045776367 57.04800033569336,-24.506999969482422 C57.04800033569336,-32.42900085449219 54.15700149536133,-39.676998138427734 49.37300109863281,-45.25400161743164 C43.52299880981445,-52.07400131225586 29.52199935913086,-66.51399993896484 -2.0820000171661377,-66.51399993896484 C-32.4379997253418,-66.51399993896484 -57.04800033569336,-41.904998779296875 -57.04800033569336,-11.548999786376953 C-57.04800033569336,8.428999900817871 -46.51599884033203,35.92100143432617 -30.66200065612793,52.3849983215332"/></g><g opacity="1" transform="matrix(1,0,0,1,313.1400146484375,287.2829895019531)"><path stroke-linecap="round" stroke-linejoin="round" fill-opacity="0" class="primary" stroke="rgb(18,19,49)" stroke-opacity="1" stroke-width="7" d=" M-46.59299850463867,-9.390999794006348 C-21.02199935913086,23.14299964904785 -29.334999084472656,30.214000701904297 -19.253999710083008,46.268001556396484 C-17.142000198364258,49.63199996948242 -12.218000411987305,54.16299819946289 -7.2179999351501465,56.63999938964844 C-0.11900000274181366,60.15700149536133 7.659999847412109,60.78499984741211 14.781000137329102,58.9739990234375 C23.489999771118164,56.7599983215332 42.643001556396484,50.62300109863281 56.67300033569336,22.304000854492188 C70.14900207519531,-4.896999835968018 59.02299880981445,-37.87300109863281 31.82200050354004,-51.3489990234375 C14.010000228881836,-60.17300033569336 -15.097000122070312,-62.95800018310547 -36.85300064086914,-56.191001892089844"/></g><g opacity="1" transform="matrix(1,0,0,1,189.93099975585938,296.66900634765625)"><path stroke-linecap="round" stroke-linejoin="round" fill-opacity="0" class="primary" stroke="rgb(18,19,49)" stroke-opacity="1" stroke-width="7" d=" M27.464000701904297,-48.59400177001953 C-15.51099967956543,-36.946998596191406 -18.31999969482422,-47.999000549316406 -37.53799819946289,-45.1619987487793 C-41.46799850463867,-44.582000732421875 -47.59700012207031,-41.895999908447266 -51.87699890136719,-38.316001892089844 C-57.952999114990234,-33.233001708984375 -61.65800094604492,-26.365999221801758 -62.86600112915039,-19.118000030517578 C-64.34400177001953,-10.255000114440918 -66.43499755859375,9.75100040435791 -46.15700149536133,33.99100112915039 C-26.679000854492188,57.275001525878906 7.986000061035156,60.35900115966797 31.270000457763672,40.88100051879883 C45.16899871826172,29.253999710083008 58.25,7.013999938964844 62.39400100708008,-13.977999687194824"/></g><g opacity="1" transform="matrix(1,0,0,1,250,250)"><path stroke-linecap="round" stroke-linejoin="round" fill-opacity="0" class="primary" stroke="rgb(18,19,49)" stroke-opacity="1" stroke-width="7" d=" M-31.89699935913086,0 C-31.89699935913086,17.615999221801758 -17.615999221801758,31.89699935913086 0,31.89699935913086 C17.615999221801758,31.89699935913086 31.89699935913086,17.615999221801758 31.89699935913086,0 C31.89699935913086,-17.615999221801758 17.615999221801758,-31.89699935913086 0,-31.89699935913086 C-17.615999221801758,-31.89699935913086 -31.89699935913086,-17.615999221801758 -31.89699935913086,0z"/></g></g></g></g></svg>